<?xml version="1.0" standalone="no"?>
<!DOCTYPE svg PUBLIC "-//W3C//DTD SVG 20010904//EN"
 "http://www.w3.org/TR/2001/REC-SVG-20010904/DTD/svg10.dtd">
<svg version="1.0" xmlns="http://www.w3.org/2000/svg"
 width="174.000000pt" height="110.000000pt" viewBox="0 0 174.000000 110.000000"
 preserveAspectRatio="xMidYMid meet">

<g transform="translate(0.000000,110.000000) scale(0.100000,-0.100000)"
fill="#000000" stroke="none">
<path d="M190 1026 c0 -2 7 -23 15 -46 8 -23 15 -46 15 -51 0 -5 -27 -9 -60
-9 -33 0 -60 -2 -60 -5 0 -2 9 -27 20 -55 11 -28 20 -53 20 -55 0 -3 -29 -5
-64 -5 l-63 0 47 -94 c53 -105 101 -245 161 -470 22 -83 42 -156 44 -163 3 -8
21 -6 64 7 108 34 233 52 368 54 73 0 133 2 133 3 0 2 -17 13 -38 26 -58 37
-151 67 -263 86 l-104 17 -17 84 c-34 167 -71 318 -114 469 -25 85 -43 158
-42 162 3 6 214 -42 288 -65 16 -6 22 -5 15 2 -32 32 -365 131 -365 108z m121
-452 c46 -179 86 -329 89 -334 3 -5 58 -14 122 -20 168 -15 191 -29 47 -29
-153 -1 -209 7 -209 29 0 35 -151 545 -196 665 -5 12 1 15 28 15 l34 0 85
-326z m-145 149 c10 -32 49 -170 88 -308 l71 -250 90 -5 90 -5 -98 -24 c-55
-12 -102 -19 -107 -15 -4 5 -33 92 -65 194 -31 101 -79 247 -106 324 -27 76
-49 141 -49 143 0 1 16 3 35 3 33 0 35 -2 51 -57z"/>
<path d="M1465 1015 c-76 -16 -165 -46 -235 -80 -57 -26 -52 -26 40 -1 30 9
95 24 143 35 80 17 87 18 83 2 -74 -256 -110 -396 -145 -570 l-27 -134 -106
-18 c-108 -18 -244 -65 -285 -97 -22 -16 -18 -17 115 -18 140 -2 255 -18 369
-53 l63 -19 10 41 c71 281 166 564 219 648 l30 49 -64 0 c-36 0 -65 4 -65 9 0
5 9 30 20 56 11 26 20 49 20 51 0 2 -27 4 -60 4 -67 0 -69 2 -45 69 17 48 17
48 -80 26z m121 -127 c-20 -49 -133 -410 -165 -532 -23 -82 -43 -152 -47 -155
-3 -3 -74 -7 -157 -8 -179 -3 -173 13 11 26 62 5 115 10 117 12 1 2 37 137 80
299 42 162 81 312 86 333 9 34 13 37 45 37 25 0 34 -4 30 -12z m84 -110 c0 -2
-14 -39 -30 -83 -17 -44 -66 -192 -110 -329 -43 -136 -81 -250 -84 -253 -6 -6
-155 26 -176 38 -9 5 17 9 67 9 l82 0 20 68 c11 37 50 173 87 302 36 129 68
238 71 243 4 6 73 11 73 5z"/>
</g>
</svg>
